# AST/ASF file generated using VICON BodyLanguage
# -----------------------------------------------
:version 1.10
:name VICON
:units
  mass 1.0
  length 0.45
  angle deg
:documentation
   .ast/.asf automatically generated from VICON data using
   VICON BodyBuilder and BodyLanguage model FoxedUp or BRILLIANT.MOD
:root
   order TX TY TZ RX RY RZ
   axis XYZ
   position 0 0 0  
   orientation 0 0 0 
:bonedata
  begin
     id 1 
     name lhipjoint
     direction 0.700308 -0.549349 0.455834 
     length 2.59063 
     axis 0 0 0  XYZ
  end
  begin
     id 2 
     name lfemur
     direction 0.34202 -0.939693 0  
     length 6.31066  
     axis 0 0 20  XYZ
    dof rx ry rz
    limits (-160.0 20.0)
           (-70.0 70.0)
           (-60.0 70.0)
  end
  begin
     id 3 
     name ltibia
     direction 0.34202 -0.939693 0   
     length 7.36093   
     axis 0 0 20   XYZ
    dof rx
    limits (-10.0 170.0)
  end
  begin
     id 4 
     name lfoot
     direction 0.0905332 -0.248738 0.96433   
     length 2.0233   
     axis -90 7.62852e-016 20   XYZ
    dof rx rz
    limits (-45.0 90.0)
           (-70.0 20.0)
  end
  begin
     id 5 
     name ltoes
     direction 1.53573e-011 -4.21855e-011 1   
     length 1.01524   
     axis -90 7.62852e-016 20   XYZ
    dof rx
    limits (-90.0 20.0)
  end
  begin
     id 6 
     name rhipjoint
     direction -0.61416 -0.607328 0.503944   
     length 2.34332  
     axis 0 0 0  XYZ 
  end
  begin
     id 7 
     name rfemur
     direction -0.34202 -0.939693 0   
     length 6.58548   
     axis 0 0 -20   XYZ
    dof rx ry rz
    limits (-160.0 20.0)
           (-70.0 70.0)
           (-70.0 60.0)
  end
  begin
     id 8 
     name rtibia
     direction -0.34202 -0.939693 0   
     length 7.20707   
     axis 0 0 -20   XYZ
    dof rx
    limits (-10.0 170.0)
 end
 begin
     id 9 
     name rfoot
     direction -0.136772 -0.375778 0.916561   
     length 1.92184  
     axis -90 -7.62852e-016 -20   XYZ
    dof rx rz
    limits (-45.0 90.0)
           (-20.0 70.0)
  end
  begin
     id 10 
     name rtoes
     direction -1.53535e-011 -4.21828e-011 1   
     length 0.951089   
     axis -90 -7.62852e-016 -20   XYZ
    dof rx
    limits (-90.0 20.0)
  end
  begin
     id 11 
     name lowerback
     direction -0.0444974 0.988086 -0.147332   
     length 1.9609   
     axis 0 0 0   XYZ
    dof rx ry rz
    limits (-20.0 45.0)
           (-30.0 30.0)
           (-30.0 30.0)
  end
  begin
     id 12 
     name upperback
     direction 0.00613146 0.999513 0.0306081   
     length 1.94944   
     axis 0 0 0   XYZ
    dof rx ry rz
    limits (-20.0 45.0)
           (-30.0 30.0)
           (-30.0 30.0)
  end
  begin
     id 13 
     name thorax
     direction 0.0254621 0.994518 0.101418   
     length 2.0119   
     axis 0 0 0   XYZ
    dof rx ry rz
    limits (-20.0 45.0)
           (-30.0 30.0)
           (-30.0 30.0)
  end
  begin
     id 14 
     name lowerneck
     direction 0.0168698 0.977854 0.208608   
     length 1.6375   
     axis 0 0 0   XYZ
    dof rx ry rz
    limits (-20.0 45.0)
           (-30.0 30.0)
           (-30.0 30.0)
  end
  begin
     id 15 
     name upperneck
     direction -0.0283988 0.989338 -0.142843   
     length 1.6851   
     axis 0 0 0   XYZ
    dof rx ry rz
    limits (-20.0 45.0)
           (-30.0 30.0)
           (-30.0 30.0)
  end
  begin
     id 16
     name head
     direction -0.0129422 0.99741 -0.0707489  
     length 1.69029  
     axis 0 0 0   XYZ
    dof rx ry rz
    limits (-20.0 45.0)
           (-30.0 30.0)
           (-30.0 30.0)
  end
  begin
     id 17 
     name lclavicle
     direction 0.820295 0.564628 -0.0911715  
     length 3.16484  
     axis 0 0 0   XYZ
    dof ry rz
    limits (-20.0 10.0)
           (0.0 20.0)
  end
  begin
     id 18 
     name lhumerus
     direction 1 -4.48969e-011 1.00186e-027   
     length 5.17853   
     axis 180 -30 -90   XYZ
    dof rx ry rz
    limits (-60.0 90.0)
           (-90.0 90.0)
           (-90.0 90.0)
  end
  begin
     id 19
     name lradius
     direction 1 -4.48966e-011 -1.52922e-027   
     length 3.40399   
     axis 180 -30 -90   XYZ
    dof rx
    limits (-10.0 170.0)
  end
  begin
     id 20
     name lwrist
     direction 1 -4.48981e-011 -3.80893e-027   
     length 1.70199   
     axis 1.1049e-015 90 90   XYZ
    dof ry
    limits (-180.0 0.0)
 end
  begin
     id 21 
     name lhand
     direction 1 -4.48957e-011 -7.61786e-027   
     length 0.708964   
     axis 4.86085e-015 90 90   XYZ
    dof rx rz
    limits (-90.0 90.0)
           (-45.0 45.0)
  end
  begin
     id 22 
     name lfingers
     direction 1 -4.48929e-011 -1.52357e-026   
     length 0.571585   
     axis 9.7217e-015 90 90   XYZ
    dof rx
    limits (0.0 90.0)
  end
  begin
     id 23
     name lthumb
     direction 0.707107 -6.34905e-011 0.707107   
     length 0.820685   
     axis -90 45 2.85299e-015   XYZ
    dof rx rz
    limits (-45.0 45.0)
           (-45.0 45.0)
  end
  begin
     id 24 
     name rclavicle
     direction -0.858602 0.463947 -0.218075   
     length 3.35137  
     axis 0 0 0   XYZ 
    dof ry rz
    limits (-10.0 20.0)
           (-20.0 0.0)
  end
  begin
     id 25 
     name rhumerus
     direction -1 -4.48969e-011 -1.98511e-027  
     length 5.42351   
     axis 180 30 90   XYZ
    dof rx ry rz
    limits (-90.0 60.0)
           (-90.0 90.0)
           (-90.0 90.0)
  end
  begin
     id 26 
     name rradius
     direction -1 -4.48961e-011 -2.82624e-027   
     length 3.42066   
     axis 180 30 90   XYZ
    dof rx
    limits (-10.0 170.0)
  end
  begin
     id 27 
     name rwrist
     direction -1 -4.48966e-011 -3.80893e-027   
     length 1.71033   
     axis 1.1049e-015 -90 -90   XYZ
    dof ry
    limits (-180.0 0.0)
  end
  begin
     id 28
     name rhand
     direction -1 -4.48964e-011 -7.61786e-027   
     length 0.743608   
     axis 4.86085e-015 -90 -90   XYZ
    dof rx rz
    limits (-90.0 90.0)
           (-45.0 45.0)
  end
  begin
     id 29
     name rfingers
     direction -1 -4.48961e-011 -1.52357e-026   
     length 0.599516   
     axis 9.7217e-015 -90 -90   XYZ
    dof rx
    limits (0.0 90.0)
  end
  begin
     id 30
     name rthumb
     direction -0.707107 -6.34913e-011 0.707107   
     length 0.860789   
     axis -90 -45 -2.85299e-015   XYZ
    dof rx rz
    limits (-45.0 45.0)
           (-45.0 45.0)
  end
:hierarchy
  begin
    root lhipjoint rhipjoint lowerback
    lhipjoint lfemur
    lfemur ltibia
    ltibia lfoot
    lfoot ltoes
    rhipjoint rfemur
    rfemur rtibia
    rtibia rfoot
    rfoot rtoes
    lowerback upperback
    upperback thorax
    thorax lowerneck lclavicle rclavicle
    lowerneck upperneck
    upperneck head
    lclavicle lhumerus
    lhumerus lradius
    lradius lwrist
    lwrist lhand lthumb
    lhand lfingers
    rclavicle rhumerus
    rhumerus rradius
    rradius rwrist
    rwrist rhand rthumb
    rhand rfingers
  end

#!OML:ASF E:\mmandel\Project 1\Capture day 1\Session 2\Subject.ASF
:FULLY-SPECIFIED
:DEGREES
57
root -4.85482 1.56164 -1.39689 9.1856 81.8411 112.182
lowerback 20.5608 1.68338 -1.20129
upperback 3.05604 2.51975 3.80107
thorax -8.40281 1.41232 4.1295
lowerneck -25.352 -1.6615 -1.48803
upperneck 17.8499 -3.05223 5.64856
head 9.96112 -0.787084 1.77652
rclavicle 1.23246e-014 -3.30852e-014
rhumerus -22.406 34.6298 -29.7133
rradius 26.1545
rwrist 9.3812
rhand 16.9567 23.9009
rfingers 7.12502
rthumb 41.6902 -0.792057
lclavicle 1.23246e-014 -3.30852e-014
lhumerus -30.4827 -30.0586 29.163
lradius 21.962
lwrist 10.8127
lhand -13.9195 -20.6841
lfingers 7.12502
lthumb 12.2067 8.93968
rfemur -0.71501 -39.5823 -7.96129
rtibia 50.5749
rfoot -1.96086 -18.1124
rtoes -5.25268
lfemur -16.0546 16.7958 -6.90757
ltibia 73.8418
lfoot 6.49518 1.15412
ltoes 5.43877
58
root -4.85912 1.56392 -1.39853 8.59712 81.8837 111.56
lowerback 20.4923 1.66423 -1.12904
upperback 3.09231 2.51721 3.87002
thorax -8.32623 1.41003 4.16509
lowerneck -25.4164 -1.7061 -1.61646
upperneck 17.9148 -3.07791 5.67942
head 9.99903 -0.802317 1.80519
rclavicle 3.02153e-014 -3.97818e-014
rhumerus -22.1494 33.9239 -29.358
rradius 26.3863
rwrist 9.83648
rhand 17.1642 24.0459
rfingers 7.12502
rthumb 41.8848 -0.582649
lclavicle 3.02153e-014 -3.97818e-014
lhumerus -30.2796 -29.9607 29.1301
lradius 21.8949
lwrist 10.7746
lhand -13.9917 -20.8888
lfingers 7.12502
lthumb 12.1371 8.73912
rfemur -0.695045 -39.5777 -7.81952
rtibia 50.4851
rfoot -1.85411 -18.1565
rtoes -5.0474
lfemur -16.0808 16.7999 -6.81375
ltibia 73.8691
lfoot 6.46472 1.17743
ltoes 6.02261
59
root -4.85893 1.56499 -1.39979 8.11831 81.9502 111.067
lowerback 20.4323 1.64893 -0.984025
upperback 3.15947 2.53085 3.88358
thorax -8.21606 1.41228 4.09298
lowerneck -25.5431 -1.85481 -1.82627
upperneck 17.967 -3.23667 5.80085
head 10.0524 -0.871639 1.8585
rclavicle -2.34566e-014 5.33861e-014
rhumerus -22.1334 33.2302 -29.258
rradius 26.6328
rwrist 10.2507
rhand 16.8703 24.0675
rfingers 7.12502
rthumb 41.6091 -0.652149
lclavicle -2.34566e-014 5.33861e-014
lhumerus -29.9508 -30.0835 29.0643
lradius 21.9161
lwrist 11.1572
lhand -14.0943 -21.0686
lfingers 7.12502
lthumb 12.0381 8.56521
rfemur -0.627104 -39.6258 -7.75302
rtibia 50.4225
rfoot -1.82906 -18.1218
rtoes -4.7766
lfemur -16.1179 16.7728 -6.72448
ltibia 73.8905
lfoot 6.40691 1.15719
ltoes 5.96128
60
root -4.86036 1.56554 -1.40203 7.73963 81.9877 110.645
lowerback 20.3993 1.65041 -0.812346
upperback 3.15815 2.56653 3.84524
thorax -8.19369 1.42349 3.94237
lowerneck -25.5265 -2.00413 -1.99231
upperneck 18.0235 -3.42633 5.97965
head 10.0854 -0.946151 1.92027
rclavicle 9.14409e-015 -5.17213e-014
rhumerus -22.3021 33.0692 -29.3302
rradius 26.9507
rwrist 10.2267
rhand 16.7124 24.2536
rfingers 7.12502
rthumb 41.461 -0.514438
lclavicle 9.14409e-015 -5.17213e-014
lhumerus -29.5394 -30.1997 28.8599
lradius 21.9293
lwrist 11.3088
lhand -14.2476 -21.0774
lfingers 7.12502
lthumb 11.8903 8.56493
rfemur -0.647179 -39.6322 -7.64217
rtibia 50.3718
rfoot -1.76875 -18.1628
rtoes -4.50997
lfemur -16.1716 16.7177 -6.69218
ltibia 73.8981
lfoot 6.33502 1.16868
ltoes 5.61136
61
root -4.86559 1.56708 -1.40393 7.06348 82.0467 109.911
lowerback 20.3498 1.62277 -0.645432
upperback 3.14047 2.56473 3.8363
thorax -8.17893 1.41719 3.83759
lowerneck -25.4409 -2.0892 -2.15561
upperneck 18.1236 -3.54578 6.21643
head 10.121 -0.981282 2.01413
rclavicle -5.88403e-014 6.85807e-014
rhumerus -22.2318 33.0447 -29.2777
rradius 27.2541
rwrist 10.167
rhand 16.904 24.4898
rfingers 7.12502
rthumb 41.6407 -0.219477
lclavicle -5.88403e-014 6.85807e-014
lhumerus -29.1476 -30.0337 28.586
lradius 21.8155
lwrist 11.1135
lhand -14.5265 -21.1717
lfingers 7.12502
lthumb 11.6214 8.48603
rfemur -0.670293 -39.6177 -7.4619
rtibia 50.3147
rfoot -1.71437 -18.2038
rtoes -4.12849
lfemur -16.2561 16.6704 -6.61437
ltibia 73.9217
lfoot 6.2981 1.15101
ltoes 4.96693
62
root -4.87073 1.5692 -1.40403 6.41438 82.1189 109.24
lowerback 20.3038 1.58289 -0.511213
upperback 3.16885 2.54192 3.84555
thorax -8.11624 1.40236 3.77726
lowerneck -25.4552 -2.15868 -2.33241
upperneck 18.2494 -3.6354 6.43261
head 10.182 -1.00445 2.10812
rclavicle 2.5842e-014 1.46728e-014
rhumerus -22.2257 33.3002 -29.2982
rradius 27.6206
rwrist 9.74929
rhand 16.9728 24.4543
rfingers 7.12502
rthumb 41.7053 -0.233663
lclavicle 2.5842e-014 1.46728e-014
lhumerus -28.7217 -29.5969 28.2653
lradius 21.6982
lwrist 10.6883
lhand -14.7668 -21.3051
lfingers 7.12502
lthumb 11.3897 8.36555
rfemur -0.608406 -39.6086 -7.35497
rtibia 50.2484
rfoot -1.72977 -18.183
rtoes -3.91696
lfemur -16.3118 16.6298 -6.51533
ltibia 73.9443
lfoot 6.26689 1.12855
ltoes 4.52319
63
root -4.87243 1.57044 -1.40376 6.05854 82.1538 108.899
lowerback 20.3128 1.5661 -0.450291
upperback 3.19416 2.53272 3.83564
thorax -8.08966 1.39618 3.73367
lowerneck -25.5272 -2.18212 -2.40222
upperneck 18.3809 -3.6763 6.54528
head 10.2485 -1.0097 2.15542
rclavicle 8.74653e-015 -5.18952e-014
rhumerus -22.3558 33.8938 -29.4337
rradius 28.0091
rwrist 9.02134
rhand 16.7101 24.2429
rfingers 7.12502
rthumb 41.4588 -0.525879
lclavicle 8.74653e-015 -5.18952e-014
lhumerus -28.3072 -29.1755 27.9192
lradius 21.6373
lwrist 10.2843
lhand -14.6695 -21.3665
lfingers 7.12502
lthumb 11.4835 8.29892
rfemur -0.531716 -39.5728 -7.31178
rtibia 50.1777
rfoot -1.74186 -18.1768
rtoes -3.90209
lfemur -16.2917 16.6153 -6.45237
ltibia 73.9508
lfoot 6.12827 1.03047
ltoes 3.8279
